<svg width="390" height="71" viewBox="0 0 390 71" fill="none" xmlns="http://www.w3.org/2000/svg">
<path d="M17.7206 56L0.204562 15.4H10.3546L25.6666 51.36H19.6926L35.2366 15.4H44.5746L27.0006 56H17.7206Z" fill="white"/>
<path d="M95.814 56V15.4H105.21V56H95.814ZM134.275 56.696C131.143 56.696 128.224 56.1933 125.517 55.188C122.849 54.144 120.529 52.6747 118.557 50.78C116.585 48.8853 115.039 46.662 113.917 44.11C112.835 41.558 112.293 38.7547 112.293 35.7C112.293 32.6453 112.835 29.842 113.917 27.29C115.039 24.738 116.585 22.5147 118.557 20.62C120.568 18.7253 122.907 17.2753 125.575 16.27C128.243 15.226 131.163 14.704 134.333 14.704C137.852 14.704 141.023 15.3227 143.845 16.56C146.707 17.7587 149.104 19.5373 151.037 21.896L145.005 27.464C143.613 25.8787 142.067 24.6993 140.365 23.926C138.664 23.114 136.808 22.708 134.797 22.708C132.903 22.708 131.163 23.0173 129.577 23.636C127.992 24.2547 126.619 25.144 125.459 26.304C124.299 27.464 123.391 28.8367 122.733 30.422C122.115 32.0073 121.805 33.7667 121.805 35.7C121.805 37.6333 122.115 39.3927 122.733 40.978C123.391 42.5633 124.299 43.936 125.459 45.096C126.619 46.256 127.992 47.1453 129.577 47.764C131.163 48.3827 132.903 48.692 134.797 48.692C136.808 48.692 138.664 48.3053 140.365 47.532C142.067 46.72 143.613 45.502 145.005 43.878L151.037 49.446C149.104 51.8047 146.707 53.6027 143.845 54.84C141.023 56.0773 137.833 56.696 134.275 56.696ZM166.024 31.756H185.57V39.064H166.024V31.756ZM166.72 48.46H188.818V56H157.382V15.4H188.064V22.94H166.72V48.46ZM212.72 56V15.4H232.556C237.66 15.4 241.488 16.3667 244.04 18.3C246.631 20.2333 247.926 22.7853 247.926 25.956C247.926 28.0827 247.404 29.9387 246.36 31.524C245.316 33.0707 243.886 34.2693 242.068 35.12C240.251 35.9707 238.163 36.396 235.804 36.396L236.906 34.018C239.458 34.018 241.72 34.4433 243.692 35.294C245.664 36.106 247.192 37.324 248.274 38.948C249.396 40.572 249.956 42.5633 249.956 44.922C249.956 48.402 248.584 51.128 245.838 53.1C243.093 55.0333 239.052 56 233.716 56H212.72ZM222.058 48.924H233.02C235.456 48.924 237.293 48.5373 238.53 47.764C239.806 46.952 240.444 45.676 240.444 43.936C240.444 42.2347 239.806 40.978 238.53 40.166C237.293 39.3153 235.456 38.89 233.02 38.89H221.362V32.046H231.396C233.678 32.046 235.418 31.6593 236.616 30.886C237.854 30.074 238.472 28.856 238.472 27.232C238.472 25.6467 237.854 24.4673 236.616 23.694C235.418 22.882 233.678 22.476 231.396 22.476H222.058V48.924ZM257.07 56V15.4H274.644C278.279 15.4 281.411 15.9993 284.04 17.198C286.669 18.358 288.699 20.04 290.13 22.244C291.561 24.448 292.276 27.0773 292.276 30.132C292.276 33.148 291.561 35.758 290.13 37.962C288.699 40.1273 286.669 41.79 284.04 42.95C281.411 44.11 278.279 44.69 274.644 44.69H262.29L266.466 40.572V56H257.07ZM282.88 56L272.73 41.268H282.764L293.03 56H282.88ZM266.466 41.616L262.29 37.208H274.122C277.022 37.208 279.187 36.5893 280.618 35.352C282.049 34.076 282.764 32.336 282.764 30.132C282.764 27.8893 282.049 26.1493 280.618 24.912C279.187 23.6747 277.022 23.056 274.122 23.056H262.29L266.466 18.59V41.616ZM299.72 56V15.4H309.116V56H299.72ZM327.394 31.756H346.94V39.064H327.394V31.756ZM328.09 48.46H350.188V56H318.752V15.4H349.434V22.94H328.09V48.46ZM366.364 33.67H385.852V41.21H366.364V33.67ZM367.06 56H357.664V15.4H388.346V22.94H367.06V56Z" fill="white"/>
<path fill-rule="evenodd" clip-rule="evenodd" d="M62.2032 27.3235V14H72.0336V27.3235L84.3215 20.2291L89.2367 28.7424L76.9487 35.8369L89.1902 42.9045L84.275 51.4178L72.0336 44.3502V57.5158H62.2032V44.3503L49.9618 51.4178L45.0466 42.9045L57.288 35.8369L45 28.7424L49.9152 20.2291L62.2032 27.3235Z" fill="#33D3D4"/>
</svg>
